<svg xmlns="http://www.w3.org/2000/svg" width="50" height="50"><defs><filter id="a" width="1.048" height="1.044" x="-.024" y="-.022" style="color-interpolation-filters:sRGB"><feGaussianBlur in="SourceAlpha" result="blur1" stdDeviation=".1"/><feComposite in="SourceGraphic" in2="blur1" operator="out" result="composite1"/><feColorMatrix result="colormatrix1" values="1 0 0 0 0 0 1 0 0 0 0 0 1 0 0 0 0 0 50 -0"/><feGaussianBlur result="blur2" stdDeviation=".1"/><feComposite in="SourceGraphic" in2="blur2" operator="in" result="composite2"/><feColorMatrix result="colormatrix2" values="1 0 0 0 0 0 1 0 0 0 0 0 1 0 0 0 0 0 50 -0"/><feGaussianBlur result="blur3" stdDeviation=".1"/><feColorMatrix result="colormatrix3" values="1 0 0 0 0 0 1 0 0 0 0 0 1 0 0 0 0 0 5 -1"/><feFlood flood-color="#000" flood-opacity="1" result="flood"/><feComposite in="flood" in2="colormatrix3" k2="1" operator="in" result="composite3"/><feComposite in="SourceGraphic" in2="colormatrix3" operator="out" result="composite4"/><feComposite in="composite4" in2="composite3" k2="1" k3="1" operator="arithmetic" result="composite5"/></filter></defs><path d="M0 0h50v50H0z" style="fill:#c746c7;stroke-width:3.77953;fill-opacity:1"/><g fill="#ffac33" style="filter:url(#a)" transform="translate(7 7)"><path d="M28 13c0 11 5 10 5 15 0 0 0 2-2 2H5c-2 0-2-2-2-2 0-5 5-4 5-15C8 7.478 12.477 3 18 3s10 4.478 10 10Z"/><circle cx="18" cy="3" r="3"/><path d="M18 36a4 4 0 0 0 4-4h-8a4 4 0 0 0 4 4z"/></g></svg>