<?xml version="1.0" encoding="UTF-8" standalone="no"?>
<svg
   width="512"
   height="512"
   version="1.1"
   id="svg10"
   sodipodi:docname="icon.svg"
   inkscape:version="1.1.1 (3bf5ae0d25, 2021-09-20)"
   xmlns:inkscape="http://www.inkscape.org/namespaces/inkscape"
   xmlns:sodipodi="http://sodipodi.sourceforge.net/DTD/sodipodi-0.dtd"
   xmlns="http://www.w3.org/2000/svg"
   xmlns:svg="http://www.w3.org/2000/svg">
  <defs
     id="defs14" />
  <sodipodi:namedview
     id="namedview12"
     pagecolor="#ffffff"
     bordercolor="#666666"
     borderopacity="1.0"
     inkscape:pageshadow="2"
     inkscape:pageopacity="0.0"
     inkscape:pagecheckerboard="0"
     showgrid="false"
     inkscape:zoom="1.575"
     inkscape:cx="289.20635"
     inkscape:cy="254.92063"
     inkscape:window-width="1920"
     inkscape:window-height="1007"
     inkscape:window-x="0"
     inkscape:window-y="0"
     inkscape:window-maximized="1"
     inkscape:current-layer="svg10" />
  <path
     d="M 0,0 H 512 V 512 H 0 Z"
     style="fill:#c746c7;fill-opacity:1;stroke-width:38.7024"
     id="path2" />
  <g
     fill="#ffac33"
     style="stroke:#000000;stroke-width:1;stroke-miterlimit:4;stroke-dasharray:none;stroke-opacity:1;paint-order:stroke fill markers"
     transform="matrix(10.24,0,0,10.24,71.68,71.68)"
     id="g8">
    <circle
       cx="18"
       cy="3"
       r="3"
       style="stroke:#000000;stroke-width:1;stroke-miterlimit:4;stroke-dasharray:none;stroke-opacity:1;paint-order:stroke fill markers"
       id="circle4" />
    <path
       d="m 28,13 c 0,11 5,10 5,15 0,0 0,2 -2,2 H 5 C 3,30 3,28 3,28 3,23 8,24 8,13 8,7.478 12.477,3 18,3 23.523,3 28,7.478 28,13 Z M 18,36 a 4,4 0 0 0 4,-4 h -8 a 4,4 0 0 0 4,4 z"
       style="stroke:#000000;stroke-width:1;stroke-miterlimit:4;stroke-dasharray:none;stroke-opacity:1;paint-order:stroke fill markers"
       id="path6" />
  </g>
</svg>
