<svg xmlns="http://www.w3.org/2000/svg" width="50" height="50"><path d="M0 0h50v50H0z" style="fill:#c746c7;stroke-width:3.77953;fill-opacity:1"/><g fill="#ffac33" style="stroke:#000;stroke-width:1;stroke-miterlimit:4;stroke-dasharray:none;stroke-opacity:1;paint-order:stroke fill markers" transform="translate(7 7)"><circle cx="18" cy="3" r="3" style="stroke:#000;stroke-width:1;stroke-miterlimit:4;stroke-dasharray:none;stroke-opacity:1;paint-order:stroke fill markers"/><path d="M28 13c0 11 5 10 5 15 0 0 0 2-2 2H5c-2 0-2-2-2-2 0-5 5-4 5-15C8 7.478 12.477 3 18 3s10 4.478 10 10ZM18 36a4 4 0 0 0 4-4h-8a4 4 0 0 0 4 4z" style="stroke:#000;stroke-width:1;stroke-miterlimit:4;stroke-dasharray:none;stroke-opacity:1;paint-order:stroke fill markers"/></g></svg>